<svg xmlns="http://www.w3.org/2000/svg" width="63.463" height="79.256" viewBox="0 0 63.463 79.256"><path d="M40.349,130.206a10.288,10.288,0,0,1-.069-9.863c1.294-2.729,2.755-5.38,4.154-8.059a37.82,37.82,0,0,0,4.479-19.58,16.44,16.44,0,0,1-.049-2.175c3.581,5.34,3.768,11.225,2.756,17.311,3.457-7.424,3.606-14.826-.184-22.224,1.831.824,5.031,4.117,6.5,7.072,1.441,2.908,2.62,5.945,3.962,9.038a15.588,15.588,0,0,0,3.294-8.212,25.162,25.162,0,0,0-1-8.852,25.4,25.4,0,0,1,2.464,7.374c1.286,7.463-.4,14.386-3.874,20.968a42.444,42.444,0,0,1-6.854,9.531c1.222-5.032,2.724-9.815,1.956-14.852l-.252-.035c-.356,1.514-.592,3.07-1.095,4.534-.937,2.73-1.993,5.421-3.062,8.1-2.094,5.252-2.438,7.023-2.255,12.5-2.816-2.889-3.647-6.307-3.38-10.126-3.236,5.207-2.445,10.393,0,15.595C44.92,135.931,42.17,133.5,40.349,130.206Zm-10.207-6.792c-1.5-3.685-.378-6.912,2.029-9.8,1.426-1.708,2.981-3.308,4.471-4.963a20.541,20.541,0,0,0,4.477-6.769c.384-1.088.62-2.228.96-3.478,1.505,3.973,1.855,7.9.136,11.782a55.728,55.728,0,0,1-3.012,5.5,21.234,21.234,0,0,0-2.875,6.421,14.206,14.206,0,0,0,1.4,9c.54,1.16,1.182,2.274,1.721,3.451C35.732,131.354,32.055,128.108,30.142,123.414ZM18.5,110.348l.2-.243a11.032,11.032,0,0,0,6.6.319,7,7,0,0,1-1.413,6.205Zm-1.447-4.476c-.468-1.083-.158-2.054.928-3.087.745-.708,1.451-1.457,2.17-2.192a1.105,1.105,0,0,0,.139-.27c-.861-.813-1.964-.736-3-.852-1.712-.193-2.146-.991-1.212-2.466a9.4,9.4,0,0,1,1.493-1.727,39.005,39.005,0,0,0,6.943-7.932,14.829,14.829,0,0,0,.658-1.829,3.036,3.036,0,0,1,.748-1.237,25.123,25.123,0,0,1,3.223-2.14c1.636-.881,3.34-1.639,5.024-2.429a2.5,2.5,0,0,0,1.631-2.484,3.445,3.445,0,0,1,1.525-2.869A13.168,13.168,0,0,1,49.04,72.441L44.027,74.2c6.938-.946,12.9.681,17.789,5.763L56.951,78.28c5.724,5.129,6.69,11.406,5.425,18.5-.846-1.98-1.482-3.878-2.432-5.6-2.046-3.717-4.881-6.634-9.061-7.956a7.984,7.984,0,0,0-4.585-.078c.332,6.074.781,12.117-.752,18.119-.064-.219-.141-.434-.188-.657a14.74,14.74,0,0,0-2.6-6.09,7.079,7.079,0,0,0-.52-.605c-1.613-1.67-2.092-1.611-3.226.336-.535.918-1.088,1.83-1.693,2.7A3.4,3.4,0,0,1,33.841,98.4c-1.088-.141-2.176-.281-3.267-.4a1.108,1.108,0,0,0-.736.089c-.558.467-1.041,1.021-1.585,1.506-.512.456-1.065.866-1.644,1.333l5.167,1.1-.035.138-6.491.6.024.2,5.485.766-.031.236-5.96.513q.007.188.013.376c.963.141,1.934.239,2.885.434s1.892.488,2.837.738l-.05.144H23.68l2.828,1.387a10.389,10.389,0,0,1-1.1.93,5.649,5.649,0,0,1-2.962.825A5.866,5.866,0,0,1,17.056,105.872ZM29.383,88.266c-.757.192-1.083.555-.989,1.3a2.829,2.829,0,0,1-1.1,2.507c-.8.767-1.515,1.629-2.308,2.5.166.015.24.047.286.023q4.453-2.341,8.9-4.7c.182-.1.408-.306.427-.483.092-.847.119-1.7.178-2.7C32.879,87.265,31.145,87.818,29.383,88.266Zm41.112,7.808a7.82,7.82,0,0,0-.167-2.183c-.641-2.709.4-5.256.674-7.876.2-1.95.343-3.906.535-5.857a1.093,1.093,0,0,0-.664-1.178q-13.228-7.6-26.432-15.233a1.264,1.264,0,0,0-1.45.017Q29.829,71.376,16.641,78.94a1.205,1.205,0,0,0-.712,1.352c.4,3.161.753,6.331,1.221,9.483A1.633,1.633,0,0,1,16.6,91.5c-.831.711-1.608,1.485-2.553,2.368-.414-1.933-.951-3.739-1.163-5.583-.391-3.395-.585-6.812-.876-10.219a1.241,1.241,0,0,1,.73-1.342q15.073-8.686,30.108-17.439a1.53,1.53,0,0,1,1.788.015q15.037,8.749,30.107,17.442a1.18,1.18,0,0,1,.72,1.15A61.376,61.376,0,0,1,70.9,101.213c-.32.794-.62,1.6-.885,2.281C70.172,101.085,70.363,98.581,70.495,96.074Z" transform="translate(-12 -59)" fill="#151515"/></svg>